<mxfile host="65bd71144e">
    <diagram id="h37AsRMSvnecFJPZibd5" name="Page-1">
        <mxGraphModel dx="842" dy="1189" grid="0" gridSize="10" guides="1" tooltips="1" connect="1" arrows="1" fold="1" page="0" pageScale="1" pageWidth="827" pageHeight="1169" math="0" shadow="0">
            <root>
                <mxCell id="0"/>
                <mxCell id="1" parent="0"/>
                <mxCell id="oxu0THCBAFrc747pRbNd-1" value="Postgresql" style="rounded=1;whiteSpace=wrap;html=1;fillColor=#ffe6cc;strokeColor=#d79b00;" parent="1" vertex="1">
                    <mxGeometry x="1020" y="30" width="150" height="80" as="geometry"/>
                </mxCell>
                <mxCell id="oxu0THCBAFrc747pRbNd-3" style="edgeStyle=isometricEdgeStyle;rounded=0;orthogonalLoop=1;jettySize=auto;html=1;entryX=0.5;entryY=1;entryDx=0;entryDy=0;fillColor=#ffe6cc;strokeColor=#d79b00;elbow=vertical;exitX=0.75;exitY=0;exitDx=0;exitDy=0;strokeWidth=3;" parent="1" source="oxu0THCBAFrc747pRbNd-2" target="oxu0THCBAFrc747pRbNd-1" edge="1">
                    <mxGeometry relative="1" as="geometry"/>
                </mxCell>
                <mxCell id="oxu0THCBAFrc747pRbNd-5" style="rounded=0;orthogonalLoop=1;jettySize=auto;html=1;entryX=0;entryY=0.5;entryDx=0;entryDy=0;fillColor=#ffe6cc;strokeColor=#d79b00;elbow=vertical;exitX=1;exitY=0.5;exitDx=0;exitDy=0;strokeWidth=3;" parent="1" source="oxu0THCBAFrc747pRbNd-2" target="oxu0THCBAFrc747pRbNd-4" edge="1">
                    <mxGeometry relative="1" as="geometry"/>
                </mxCell>
                <mxCell id="oxu0THCBAFrc747pRbNd-49" value="1389" style="edgeLabel;html=1;align=center;verticalAlign=middle;resizable=0;points=[];spacingTop=0;spacing=2;fontSize=14;" parent="oxu0THCBAFrc747pRbNd-5" vertex="1" connectable="0">
                    <mxGeometry x="-0.1266" relative="1" as="geometry">
                        <mxPoint as="offset"/>
                    </mxGeometry>
                </mxCell>
                <mxCell id="oxu0THCBAFrc747pRbNd-2" value="Keycloak" style="rounded=1;whiteSpace=wrap;html=1;fillColor=#ffe6cc;strokeColor=#d79b00;" parent="1" vertex="1">
                    <mxGeometry x="827" y="280" width="150" height="80" as="geometry"/>
                </mxCell>
                <mxCell id="oxu0THCBAFrc747pRbNd-4" value="OpenLDAP" style="rounded=1;whiteSpace=wrap;html=1;fillColor=#ffe6cc;strokeColor=#d79b00;" parent="1" vertex="1">
                    <mxGeometry x="1100" y="280" width="150" height="80" as="geometry"/>
                </mxCell>
                <mxCell id="oxu0THCBAFrc747pRbNd-7" style="edgeStyle=isometricEdgeStyle;rounded=0;orthogonalLoop=1;jettySize=auto;html=1;fillColor=#ffe6cc;strokeColor=#d79b00;elbow=vertical;exitX=0.75;exitY=1;exitDx=0;exitDy=0;strokeWidth=3;" parent="1" source="oxu0THCBAFrc747pRbNd-6" edge="1">
                    <mxGeometry relative="1" as="geometry">
                        <mxPoint x="870" y="280" as="targetPoint"/>
                    </mxGeometry>
                </mxCell>
                <mxCell id="oxu0THCBAFrc747pRbNd-52" value="8080" style="edgeLabel;html=1;align=center;verticalAlign=middle;resizable=0;points=[];fontSize=14;" parent="oxu0THCBAFrc747pRbNd-7" vertex="1" connectable="0">
                    <mxGeometry x="-0.0695" y="-1" relative="1" as="geometry">
                        <mxPoint as="offset"/>
                    </mxGeometry>
                </mxCell>
                <mxCell id="oxu0THCBAFrc747pRbNd-8" style="edgeStyle=isometricEdgeStyle;rounded=0;orthogonalLoop=1;jettySize=auto;html=1;entryX=0;entryY=0.5;entryDx=0;entryDy=0;fillColor=#ffe6cc;strokeColor=#d79b00;jumpStyle=arc;elbow=vertical;exitX=1;exitY=0.5;exitDx=0;exitDy=0;strokeWidth=3;" parent="1" source="oxu0THCBAFrc747pRbNd-6" target="oxu0THCBAFrc747pRbNd-1" edge="1">
                    <mxGeometry relative="1" as="geometry"/>
                </mxCell>
                <mxCell id="oxu0THCBAFrc747pRbNd-10" style="rounded=0;jumpStyle=arc;orthogonalLoop=1;jettySize=auto;html=1;entryX=0.5;entryY=0;entryDx=0;entryDy=0;fillColor=#ffe6cc;strokeColor=#d79b00;elbow=vertical;exitX=0.25;exitY=1;exitDx=0;exitDy=0;strokeWidth=3;" parent="1" source="oxu0THCBAFrc747pRbNd-6" target="oxu0THCBAFrc747pRbNd-9" edge="1">
                    <mxGeometry relative="1" as="geometry"/>
                </mxCell>
                <mxCell id="oxu0THCBAFrc747pRbNd-53" value="61616" style="edgeLabel;html=1;align=center;verticalAlign=middle;resizable=0;points=[];fontSize=14;" parent="oxu0THCBAFrc747pRbNd-10" vertex="1" connectable="0">
                    <mxGeometry x="0.1089" y="-3" relative="1" as="geometry">
                        <mxPoint as="offset"/>
                    </mxGeometry>
                </mxCell>
                <mxCell id="oxu0THCBAFrc747pRbNd-6" value="Market API" style="rounded=1;whiteSpace=wrap;html=1;fillColor=#ffe6cc;strokeColor=#d79b00;" parent="1" vertex="1">
                    <mxGeometry x="720" y="70" width="150" height="80" as="geometry"/>
                </mxCell>
                <mxCell id="oxu0THCBAFrc747pRbNd-9" value="Activemq" style="rounded=1;whiteSpace=wrap;html=1;fillColor=#ffe6cc;strokeColor=#d79b00;" parent="1" vertex="1">
                    <mxGeometry x="560" y="200" width="150" height="80" as="geometry"/>
                </mxCell>
                <mxCell id="oxu0THCBAFrc747pRbNd-12" style="rounded=0;jumpStyle=arc;orthogonalLoop=1;jettySize=auto;html=1;fillColor=#dae8fc;strokeColor=#6c8ebf;elbow=vertical;exitX=1;exitY=0.5;exitDx=0;exitDy=0;entryX=0.25;entryY=1;entryDx=0;entryDy=0;strokeWidth=3;" parent="1" source="oxu0THCBAFrc747pRbNd-11" target="oxu0THCBAFrc747pRbNd-9" edge="1">
                    <mxGeometry relative="1" as="geometry">
                        <mxPoint x="630" y="290" as="targetPoint"/>
                    </mxGeometry>
                </mxCell>
                <mxCell id="oxu0THCBAFrc747pRbNd-54" value="61616" style="edgeLabel;html=1;align=center;verticalAlign=middle;resizable=0;points=[];fontSize=14;" parent="oxu0THCBAFrc747pRbNd-12" vertex="1" connectable="0">
                    <mxGeometry x="0.0797" relative="1" as="geometry">
                        <mxPoint as="offset"/>
                    </mxGeometry>
                </mxCell>
                <mxCell id="oxu0THCBAFrc747pRbNd-16" style="rounded=0;jumpStyle=arc;orthogonalLoop=1;jettySize=auto;html=1;entryX=0.5;entryY=0;entryDx=0;entryDy=0;fillColor=#dae8fc;strokeColor=#6c8ebf;endArrow=blockThin;endFill=1;startArrow=blockThin;startFill=1;elbow=vertical;exitX=0.5;exitY=1;exitDx=0;exitDy=0;strokeWidth=3;" parent="1" source="oxu0THCBAFrc747pRbNd-11" target="oxu0THCBAFrc747pRbNd-13" edge="1">
                    <mxGeometry relative="1" as="geometry">
                        <mxPoint x="390" y="430" as="sourcePoint"/>
                    </mxGeometry>
                </mxCell>
                <mxCell id="oxu0THCBAFrc747pRbNd-55" value="8005" style="edgeLabel;html=1;align=center;verticalAlign=middle;resizable=0;points=[];fontSize=14;" parent="oxu0THCBAFrc747pRbNd-16" vertex="1" connectable="0">
                    <mxGeometry x="0.2241" y="1" relative="1" as="geometry">
                        <mxPoint x="-1" as="offset"/>
                    </mxGeometry>
                </mxCell>
                <mxCell id="oxu0THCBAFrc747pRbNd-11" value="Jms Client" style="rounded=1;whiteSpace=wrap;html=1;fillColor=#dae8fc;strokeColor=#6c8ebf;" parent="1" vertex="1">
                    <mxGeometry x="300" y="340" width="150" height="80" as="geometry"/>
                </mxCell>
                <mxCell id="oxu0THCBAFrc747pRbNd-13" value="Market Client" style="rounded=1;whiteSpace=wrap;html=1;fillColor=#dae8fc;strokeColor=#6c8ebf;" parent="1" vertex="1">
                    <mxGeometry x="300" y="490" width="150" height="80" as="geometry"/>
                </mxCell>
                <mxCell id="oxu0THCBAFrc747pRbNd-21" style="edgeStyle=isometricEdgeStyle;rounded=0;jumpStyle=arc;orthogonalLoop=1;jettySize=auto;html=1;startArrow=none;startFill=0;endArrow=blockThin;endFill=1;fillColor=#d5e8d4;strokeColor=#82b366;elbow=vertical;entryX=0.5;entryY=0;entryDx=0;entryDy=0;exitX=0.25;exitY=1;exitDx=0;exitDy=0;strokeWidth=3;" parent="1" source="oxu0THCBAFrc747pRbNd-17" target="oxu0THCBAFrc747pRbNd-19" edge="1">
                    <mxGeometry relative="1" as="geometry">
                        <mxPoint x="130" y="140" as="sourcePoint"/>
                    </mxGeometry>
                </mxCell>
                <mxCell id="oxu0THCBAFrc747pRbNd-60" value="5100" style="edgeLabel;html=1;align=center;verticalAlign=middle;resizable=0;points=[];fontSize=14;" parent="oxu0THCBAFrc747pRbNd-21" vertex="1" connectable="0">
                    <mxGeometry x="-0.1948" relative="1" as="geometry">
                        <mxPoint as="offset"/>
                    </mxGeometry>
                </mxCell>
                <mxCell id="oxu0THCBAFrc747pRbNd-23" style="rounded=0;jumpStyle=arc;orthogonalLoop=1;jettySize=auto;html=1;startArrow=none;startFill=0;endArrow=blockThin;endFill=1;fillColor=#d5e8d4;strokeColor=#82b366;elbow=vertical;exitX=0;exitY=0.5;exitDx=0;exitDy=0;strokeWidth=3;entryX=0.436;entryY=0.004;entryDx=0;entryDy=0;entryPerimeter=0;" parent="1" source="oxu0THCBAFrc747pRbNd-17" target="oxu0THCBAFrc747pRbNd-22" edge="1">
                    <mxGeometry relative="1" as="geometry">
                        <mxPoint x="-98" y="191" as="targetPoint"/>
                    </mxGeometry>
                </mxCell>
                <mxCell id="oxu0THCBAFrc747pRbNd-59" value="5110" style="edgeLabel;html=1;align=center;verticalAlign=middle;resizable=0;points=[];fontSize=14;" parent="oxu0THCBAFrc747pRbNd-23" vertex="1" connectable="0">
                    <mxGeometry x="-0.1705" y="-1" relative="1" as="geometry">
                        <mxPoint as="offset"/>
                    </mxGeometry>
                </mxCell>
                <mxCell id="oxu0THCBAFrc747pRbNd-30" style="edgeStyle=isometricEdgeStyle;rounded=0;jumpStyle=arc;orthogonalLoop=1;jettySize=auto;html=1;entryX=0;entryY=0.25;entryDx=0;entryDy=0;startArrow=none;startFill=0;endArrow=blockThin;endFill=1;fillColor=#d5e8d4;strokeColor=#82b366;elbow=vertical;strokeWidth=3;" parent="1" source="oxu0THCBAFrc747pRbNd-17" target="oxu0THCBAFrc747pRbNd-6" edge="1">
                    <mxGeometry relative="1" as="geometry"/>
                </mxCell>
                <mxCell id="oxu0THCBAFrc747pRbNd-56" value="8000" style="edgeLabel;html=1;align=center;verticalAlign=middle;resizable=0;points=[];fontSize=14;" parent="oxu0THCBAFrc747pRbNd-30" vertex="1" connectable="0">
                    <mxGeometry x="0.7482" relative="1" as="geometry">
                        <mxPoint as="offset"/>
                    </mxGeometry>
                </mxCell>
                <mxCell id="oxu0THCBAFrc747pRbNd-17" value="Prometheus" style="rounded=1;whiteSpace=wrap;html=1;fillColor=#d5e8d4;strokeColor=#82b366;" parent="1" vertex="1">
                    <mxGeometry x="100" y="60" width="150" height="80" as="geometry"/>
                </mxCell>
                <mxCell id="oxu0THCBAFrc747pRbNd-19" value="Node Exporter" style="rounded=1;whiteSpace=wrap;html=1;fillColor=#d5e8d4;strokeColor=#82b366;" parent="1" vertex="1">
                    <mxGeometry x="20" y="200" width="150" height="80" as="geometry"/>
                </mxCell>
                <mxCell id="oxu0THCBAFrc747pRbNd-22" value="Cadvisor" style="rounded=1;whiteSpace=wrap;html=1;fillColor=#d5e8d4;strokeColor=#82b366;" parent="1" vertex="1">
                    <mxGeometry x="-180" y="200" width="150" height="80" as="geometry"/>
                </mxCell>
                <mxCell id="oxu0THCBAFrc747pRbNd-25" style="edgeStyle=isometricEdgeStyle;rounded=0;jumpStyle=arc;orthogonalLoop=1;jettySize=auto;html=1;entryX=0.5;entryY=0;entryDx=0;entryDy=0;startArrow=none;startFill=0;endArrow=blockThin;endFill=1;fillColor=#d5e8d4;strokeColor=#82b366;elbow=vertical;exitX=0.5;exitY=1;exitDx=0;exitDy=0;strokeWidth=3;" parent="1" source="oxu0THCBAFrc747pRbNd-24" target="oxu0THCBAFrc747pRbNd-17" edge="1">
                    <mxGeometry relative="1" as="geometry"/>
                </mxCell>
                <mxCell id="oxu0THCBAFrc747pRbNd-58" value="9090" style="edgeLabel;html=1;align=center;verticalAlign=middle;resizable=0;points=[];fontSize=14;" parent="oxu0THCBAFrc747pRbNd-25" vertex="1" connectable="0">
                    <mxGeometry x="0.6291" relative="1" as="geometry">
                        <mxPoint as="offset"/>
                    </mxGeometry>
                </mxCell>
                <mxCell id="oxu0THCBAFrc747pRbNd-27" style="rounded=0;jumpStyle=arc;orthogonalLoop=1;jettySize=auto;html=1;entryX=1;entryY=0.5;entryDx=0;entryDy=0;startArrow=none;startFill=0;endArrow=blockThin;endFill=1;fillColor=#d5e8d4;strokeColor=#82b366;elbow=vertical;strokeWidth=3;" parent="1" source="oxu0THCBAFrc747pRbNd-24" target="oxu0THCBAFrc747pRbNd-26" edge="1">
                    <mxGeometry relative="1" as="geometry"/>
                </mxCell>
                <mxCell id="oxu0THCBAFrc747pRbNd-61" value="3001" style="edgeLabel;html=1;align=center;verticalAlign=middle;resizable=0;points=[];fontSize=14;" parent="oxu0THCBAFrc747pRbNd-27" vertex="1" connectable="0">
                    <mxGeometry x="-0.25" y="1" relative="1" as="geometry">
                        <mxPoint as="offset"/>
                    </mxGeometry>
                </mxCell>
                <mxCell id="oxu0THCBAFrc747pRbNd-29" style="edgeStyle=isometricEdgeStyle;rounded=0;jumpStyle=arc;orthogonalLoop=1;jettySize=auto;html=1;entryX=0;entryY=0.5;entryDx=0;entryDy=0;startArrow=none;startFill=0;endArrow=blockThin;endFill=1;fillColor=#d5e8d4;strokeColor=#82b366;elbow=vertical;exitX=1;exitY=0.5;exitDx=0;exitDy=0;strokeWidth=3;" parent="1" source="oxu0THCBAFrc747pRbNd-24" target="oxu0THCBAFrc747pRbNd-28" edge="1">
                    <mxGeometry relative="1" as="geometry"/>
                </mxCell>
                <mxCell id="oxu0THCBAFrc747pRbNd-62" value="1025" style="edgeLabel;html=1;align=center;verticalAlign=middle;resizable=0;points=[];fontSize=14;" parent="oxu0THCBAFrc747pRbNd-29" vertex="1" connectable="0">
                    <mxGeometry x="0.3268" y="1" relative="1" as="geometry">
                        <mxPoint as="offset"/>
                    </mxGeometry>
                </mxCell>
                <mxCell id="oxu0THCBAFrc747pRbNd-24" value="Grafana" style="rounded=1;whiteSpace=wrap;html=1;fillColor=#d5e8d4;strokeColor=#82b366;" parent="1" vertex="1">
                    <mxGeometry x="90" y="-170" width="150" height="80" as="geometry"/>
                </mxCell>
                <mxCell id="oxu0THCBAFrc747pRbNd-26" value="Grafana Renderer" style="rounded=1;whiteSpace=wrap;html=1;fillColor=#d5e8d4;strokeColor=#82b366;" parent="1" vertex="1">
                    <mxGeometry x="-160" y="-170" width="150" height="80" as="geometry"/>
                </mxCell>
                <mxCell id="oxu0THCBAFrc747pRbNd-28" value="Maildev" style="rounded=1;whiteSpace=wrap;html=1;fillColor=#d5e8d4;strokeColor=#82b366;" parent="1" vertex="1">
                    <mxGeometry x="370" y="-130" width="150" height="80" as="geometry"/>
                </mxCell>
                <mxCell id="oxu0THCBAFrc747pRbNd-35" value="" style="shape=image;verticalLabelPosition=bottom;labelBackgroundColor=#ffffff;verticalAlign=top;aspect=fixed;imageAspect=0;image=https://spring-petclinic.github.io/images/logo-spring.png;" parent="1" vertex="1">
                    <mxGeometry x="410" y="330" width="40" height="40" as="geometry"/>
                </mxCell>
                <mxCell id="oxu0THCBAFrc747pRbNd-36" value="" style="shape=image;verticalLabelPosition=bottom;labelBackgroundColor=#ffffff;verticalAlign=top;aspect=fixed;imageAspect=0;image=https://spring-petclinic.github.io/images/logo-spring.png;" parent="1" vertex="1">
                    <mxGeometry x="830" y="60" width="40" height="40" as="geometry"/>
                </mxCell>
                <mxCell id="oxu0THCBAFrc747pRbNd-37" value="" style="shape=image;verticalLabelPosition=bottom;labelBackgroundColor=#ffffff;verticalAlign=top;aspect=fixed;imageAspect=0;image=https://cloudcrane.io/images/header/iam-keycloak.png;" parent="1" vertex="1">
                    <mxGeometry x="814.62" y="260" width="174.77" height="81" as="geometry"/>
                </mxCell>
                <mxCell id="oxu0THCBAFrc747pRbNd-38" value="" style="shape=image;verticalLabelPosition=bottom;labelBackgroundColor=#ffffff;verticalAlign=top;aspect=fixed;imageAspect=0;image=https://assets.zabbix.com/img/brands/openldap.png;" parent="1" vertex="1">
                    <mxGeometry x="1140" y="260" width="128.33" height="50" as="geometry"/>
                </mxCell>
                <mxCell id="oxu0THCBAFrc747pRbNd-39" value="" style="shape=image;verticalLabelPosition=bottom;labelBackgroundColor=#ffffff;verticalAlign=top;aspect=fixed;imageAspect=0;image=https://upload.wikimedia.org/wikipedia/commons/thumb/2/29/Postgresql_elephant.svg/1200px-Postgresql_elephant.svg.png;" parent="1" vertex="1">
                    <mxGeometry x="1131.23" y="20" width="38.77" height="40" as="geometry"/>
                </mxCell>
                <mxCell id="oxu0THCBAFrc747pRbNd-40" value="" style="shape=image;verticalLabelPosition=bottom;labelBackgroundColor=#ffffff;verticalAlign=top;aspect=fixed;imageAspect=0;image=https://upload.wikimedia.org/wikipedia/commons/thumb/c/cf/Angular_full_color_logo.svg/2048px-Angular_full_color_logo.svg.png;" parent="1" vertex="1">
                    <mxGeometry x="405" y="470" width="50" height="50" as="geometry"/>
                </mxCell>
                <mxCell id="oxu0THCBAFrc747pRbNd-41" value="" style="shape=image;verticalLabelPosition=bottom;labelBackgroundColor=#ffffff;verticalAlign=top;aspect=fixed;imageAspect=0;image=https://activemq.apache.org/assets/img/activemq_logo_black.svg;" parent="1" vertex="1">
                    <mxGeometry x="561.43" y="190" width="148.57" height="64" as="geometry"/>
                </mxCell>
                <mxCell id="oxu0THCBAFrc747pRbNd-42" value="" style="shape=image;verticalLabelPosition=bottom;labelBackgroundColor=#ffffff;verticalAlign=top;aspect=fixed;imageAspect=0;image=https://framalibre.org/sites/default/files/leslogos/grafana-logo-15BA0AFA8A-seeklogo.com_.png;" parent="1" vertex="1">
                    <mxGeometry x="200" y="-180" width="40" height="43.48" as="geometry"/>
                </mxCell>
                <mxCell id="oxu0THCBAFrc747pRbNd-43" value="" style="shape=image;verticalLabelPosition=bottom;labelBackgroundColor=#ffffff;verticalAlign=top;aspect=fixed;imageAspect=0;image=https://framalibre.org/sites/default/files/leslogos/grafana-logo-15BA0AFA8A-seeklogo.com_.png;" parent="1" vertex="1">
                    <mxGeometry x="-50" y="-180" width="40" height="43.48" as="geometry"/>
                </mxCell>
                <mxCell id="oxu0THCBAFrc747pRbNd-44" value="" style="shape=image;verticalLabelPosition=bottom;labelBackgroundColor=#ffffff;verticalAlign=top;aspect=fixed;imageAspect=0;image=https://cdn.icon-icons.com/icons2/1154/PNG/512/1486564396-mail_81524.png;" parent="1" vertex="1">
                    <mxGeometry x="474.52" y="-136.52" width="45.48" height="45.48" as="geometry"/>
                </mxCell>
                <mxCell id="oxu0THCBAFrc747pRbNd-45" value="" style="shape=image;verticalLabelPosition=bottom;labelBackgroundColor=#ffffff;verticalAlign=top;aspect=fixed;imageAspect=0;image=https://upload.wikimedia.org/wikipedia/commons/thumb/3/38/Prometheus_software_logo.svg/800px-Prometheus_software_logo.svg.png;" parent="1" vertex="1">
                    <mxGeometry x="210" y="50.480000000000004" width="50" height="49.52" as="geometry"/>
                </mxCell>
                <mxCell id="oxu0THCBAFrc747pRbNd-46" value="" style="shape=image;verticalLabelPosition=bottom;labelBackgroundColor=#ffffff;verticalAlign=top;aspect=fixed;imageAspect=0;image=https://upload.wikimedia.org/wikipedia/commons/thumb/3/38/Prometheus_software_logo.svg/800px-Prometheus_software_logo.svg.png;" parent="1" vertex="1">
                    <mxGeometry x="130" y="190" width="50" height="49.52" as="geometry"/>
                </mxCell>
                <mxCell id="oxu0THCBAFrc747pRbNd-47" value="" style="shape=image;verticalLabelPosition=bottom;labelBackgroundColor=#ffffff;verticalAlign=top;aspect=fixed;imageAspect=0;image=https://i.imgur.com/dgpIE5E.jpg;" parent="1" vertex="1">
                    <mxGeometry x="-80" y="190" width="51.16" height="56" as="geometry"/>
                </mxCell>
                <mxCell id="oxu0THCBAFrc747pRbNd-50" value="5432" style="edgeLabel;html=1;align=center;verticalAlign=middle;resizable=0;points=[];spacingTop=0;spacing=2;fontSize=14;" parent="1" vertex="1" connectable="0">
                    <mxGeometry x="1030" y="190" as="geometry">
                        <mxPoint x="-3" y="-1" as="offset"/>
                    </mxGeometry>
                </mxCell>
                <mxCell id="oxu0THCBAFrc747pRbNd-51" value="5432" style="edgeLabel;html=1;align=center;verticalAlign=middle;resizable=0;points=[];spacingTop=0;spacing=2;fontSize=14;" parent="1" vertex="1" connectable="0">
                    <mxGeometry x="940" y="90" as="geometry">
                        <mxPoint x="-3" y="-1" as="offset"/>
                    </mxGeometry>
                </mxCell>
                <mxCell id="oxu0THCBAFrc747pRbNd-64" style="edgeStyle=none;rounded=0;jumpStyle=arc;orthogonalLoop=1;jettySize=auto;html=1;entryX=0.5;entryY=0;entryDx=0;entryDy=0;fontSize=14;startArrow=none;startFill=0;endArrow=blockThin;endFill=1;strokeWidth=3;" parent="1" source="oxu0THCBAFrc747pRbNd-63" target="oxu0THCBAFrc747pRbNd-24" edge="1">
                    <mxGeometry relative="1" as="geometry"/>
                </mxCell>
                <mxCell id="oxu0THCBAFrc747pRbNd-65" value="3000" style="edgeLabel;html=1;align=center;verticalAlign=middle;resizable=0;points=[];fontSize=14;" parent="oxu0THCBAFrc747pRbNd-64" vertex="1" connectable="0">
                    <mxGeometry x="-0.1728" y="3" relative="1" as="geometry">
                        <mxPoint as="offset"/>
                    </mxGeometry>
                </mxCell>
                <mxCell id="oxu0THCBAFrc747pRbNd-68" style="edgeStyle=none;rounded=0;jumpStyle=arc;orthogonalLoop=1;jettySize=auto;html=1;entryX=0.5;entryY=0;entryDx=0;entryDy=0;fontSize=14;startArrow=none;startFill=0;endArrow=blockThin;endFill=1;strokeWidth=3;" parent="1" source="oxu0THCBAFrc747pRbNd-63" target="oxu0THCBAFrc747pRbNd-28" edge="1">
                    <mxGeometry relative="1" as="geometry"/>
                </mxCell>
                <mxCell id="oxu0THCBAFrc747pRbNd-69" value="1080" style="edgeLabel;html=1;align=center;verticalAlign=middle;resizable=0;points=[];fontSize=14;" parent="oxu0THCBAFrc747pRbNd-68" vertex="1" connectable="0">
                    <mxGeometry x="-0.5474" y="1" relative="1" as="geometry">
                        <mxPoint as="offset"/>
                    </mxGeometry>
                </mxCell>
                <mxCell id="oxu0THCBAFrc747pRbNd-63" value="" style="outlineConnect=0;fontColor=#232F3E;gradientColor=none;fillColor=#232F3E;strokeColor=none;dashed=0;verticalLabelPosition=bottom;verticalAlign=top;align=center;html=1;fontSize=12;fontStyle=0;aspect=fixed;pointerEvents=1;shape=mxgraph.aws4.user;" parent="1" vertex="1">
                    <mxGeometry x="240" y="-410" width="78" height="78" as="geometry"/>
                </mxCell>
                <mxCell id="oxu0THCBAFrc747pRbNd-71" style="edgeStyle=none;rounded=0;jumpStyle=arc;orthogonalLoop=1;jettySize=auto;html=1;entryX=1;entryY=0.5;entryDx=0;entryDy=0;fontSize=14;startArrow=none;startFill=0;endArrow=blockThin;endFill=1;strokeWidth=3;" parent="1" source="oxu0THCBAFrc747pRbNd-70" target="oxu0THCBAFrc747pRbNd-13" edge="1">
                    <mxGeometry relative="1" as="geometry"/>
                </mxCell>
                <mxCell id="oxu0THCBAFrc747pRbNd-72" value="4200" style="edgeLabel;html=1;align=center;verticalAlign=middle;resizable=0;points=[];fontSize=14;" parent="oxu0THCBAFrc747pRbNd-71" vertex="1" connectable="0">
                    <mxGeometry x="0.2348" y="1" relative="1" as="geometry">
                        <mxPoint as="offset"/>
                    </mxGeometry>
                </mxCell>
                <mxCell id="oxu0THCBAFrc747pRbNd-73" style="edgeStyle=none;rounded=0;jumpStyle=arc;orthogonalLoop=1;jettySize=auto;html=1;entryX=0.5;entryY=1;entryDx=0;entryDy=0;fontSize=14;startArrow=none;startFill=0;endArrow=blockThin;endFill=1;strokeWidth=3;" parent="1" source="oxu0THCBAFrc747pRbNd-70" target="oxu0THCBAFrc747pRbNd-6" edge="1">
                    <mxGeometry relative="1" as="geometry"/>
                </mxCell>
                <mxCell id="oxu0THCBAFrc747pRbNd-74" value="8000" style="edgeLabel;html=1;align=center;verticalAlign=middle;resizable=0;points=[];fontSize=14;" parent="oxu0THCBAFrc747pRbNd-73" vertex="1" connectable="0">
                    <mxGeometry x="-0.3718" y="-1" relative="1" as="geometry">
                        <mxPoint as="offset"/>
                    </mxGeometry>
                </mxCell>
                <mxCell id="oxu0THCBAFrc747pRbNd-70" value="" style="outlineConnect=0;fontColor=#232F3E;gradientColor=none;fillColor=#232F3E;strokeColor=none;dashed=0;verticalLabelPosition=bottom;verticalAlign=top;align=center;html=1;fontSize=12;fontStyle=0;aspect=fixed;pointerEvents=1;shape=mxgraph.aws4.user;" parent="1" vertex="1">
                    <mxGeometry x="710" y="492" width="78" height="78" as="geometry"/>
                </mxCell>
            </root>
        </mxGraphModel>
    </diagram>
</mxfile>
